<svg version="1.1" id="Layer_1" xmlns="http://www.w3.org/2000/svg" xmlns:xlink="http://www.w3.org/1999/xlink" x="0px" y="0px"
	 width="17" height="17" viewBox="0 0 500 500" enable-background="new 0 0 500 500" xml:space="preserve">
<path fill="#FFFEFF" opacity="1.000000" stroke="none" 
	d="
M331.000000,501.000000 
	C220.666687,501.000000 110.833389,501.000000 1.000059,501.000000 
	C1.000039,334.333405 1.000039,167.666794 1.000020,1.000148 
	C167.666565,1.000099 334.333130,1.000099 500.999756,1.000049 
	C500.999847,167.666519 500.999847,334.333038 500.999939,500.999786 
	C444.500000,501.000000 388.000000,501.000000 331.000000,501.000000 
M231.315491,282.047333 
	C231.149292,282.036255 230.974518,282.053131 230.819427,282.005707 
	C230.680923,281.963409 230.448349,281.839661 230.454620,281.769470 
	C230.661194,279.458496 231.234238,277.123718 231.062103,274.844696 
	C230.046356,261.396729 228.863174,247.961411 227.726181,234.522690 
	C226.960159,225.468521 226.177383,216.415802 225.362869,206.904297 
	C223.474945,207.604889 222.291870,208.211014 221.036575,208.479813 
	C216.488068,209.453796 215.218674,211.852295 215.818268,216.632034 
	C217.122772,227.030884 217.582672,237.533707 218.478745,247.986252 
	C219.499939,259.898224 220.620132,271.801697 221.581192,282.425568 
	C223.550720,284.075592 224.637070,284.985748 225.030777,285.985931 
	C216.759872,290.175842 208.488983,294.365784 200.386261,298.470490 
	C204.143204,322.712067 193.751038,335.701660 169.893723,337.386353 
	C141.418472,339.397156 118.473442,329.202515 101.152107,306.451965 
	C97.910011,302.193634 96.117065,302.172607 92.687935,306.330261 
	C85.801071,314.680237 79.072281,323.165527 71.999977,331.354645 
	C69.784218,333.920349 69.953201,335.643372 71.762703,338.206055 
	C80.432091,350.483856 91.684227,359.635315 105.245735,365.892151 
	C129.681259,377.165863 155.420822,379.822296 181.891266,376.739014 
	C197.689667,374.898804 212.517059,370.181030 225.124420,360.079163 
	C241.532928,346.931549 247.879318,328.960815 248.775681,308.682678 
	C249.255081,297.836975 247.883865,287.180237 243.540375,276.784332 
	C239.474686,278.711487 235.740311,280.481567 231.315491,282.047333 
M404.038605,254.553940 
	C410.249481,249.329132 417.463379,244.917938 422.484467,238.727997 
	C437.978302,219.627335 439.536469,197.407593 434.342865,174.312943 
	C429.722015,153.765060 418.247040,138.334930 398.969421,129.226013 
	C384.866272,122.562096 369.843781,121.184784 354.531097,122.314262 
	C333.430023,123.870697 312.346069,125.660156 291.255310,127.356079 
	C282.834320,128.033218 274.414642,128.727127 265.472656,129.455917 
	C267.260651,151.334473 269.005005,172.679199 270.783997,194.447586 
	C272.366150,193.876572 273.459595,193.602341 274.442810,193.108536 
	C284.561646,188.026520 294.454926,182.425140 304.839783,177.967285 
	C312.056641,174.869385 315.918182,170.916611 313.795319,162.817657 
	C313.735443,162.589310 314.092224,162.251740 314.644348,161.277725 
	C328.981323,160.405518 343.765930,158.608398 358.520172,158.830368 
	C377.999908,159.123444 387.861206,168.410858 390.570953,187.667725 
	C393.546326,208.812439 387.237518,225.260574 362.246826,229.324844 
	C356.674438,230.231110 350.989899,230.429443 345.369263,231.062561 
	C340.103668,231.655701 334.275452,231.153015 329.701050,233.288269 
	C312.660034,241.242737 296.059479,250.137192 279.221893,258.535065 
	C276.720795,259.782532 275.975494,261.214111 276.210632,263.957245 
	C278.316406,288.524078 280.266998,313.104156 282.300903,337.677216 
	C282.843567,344.233734 283.515991,350.779480 284.144379,357.496033 
	C299.363739,356.320435 313.937683,355.194702 329.065826,354.026154 
	C326.779053,325.513092 324.525452,297.413361 322.244629,268.974396 
	C335.157288,267.918457 347.415161,266.743164 359.697845,265.955475 
	C374.975708,264.975708 389.786743,262.374390 404.038605,254.553940 
M134.644714,139.054993 
	C130.784058,140.079285 126.873543,140.946289 123.070412,142.152023 
	C81.982712,155.178345 64.162964,198.309219 84.428329,236.260193 
	C92.651535,251.659790 106.631477,260.277618 122.605789,265.857971 
	C125.071693,266.719360 128.607147,266.570892 130.939682,265.434967 
	C148.303543,256.978882 165.491531,248.161407 182.724106,239.436417 
	C183.980621,238.800247 185.154068,237.999969 187.247131,236.749725 
	C180.648209,235.323029 174.991379,234.250244 169.413055,232.861923 
	C158.612442,230.173904 147.516342,228.203400 137.171906,224.277573 
	C125.621841,219.894196 121.220886,211.192856 122.113953,199.387405 
	C122.844292,189.732971 129.547867,182.054245 140.758392,179.092636 
	C158.729660,174.344955 176.536331,175.156525 193.396011,183.279221 
	C199.735336,186.333420 205.278244,191.109329 210.994141,195.356171 
	C213.391891,197.137665 215.832916,198.557846 217.878510,195.868423 
	C225.401001,185.978226 232.623764,175.860062 239.955215,165.833267 
	C231.917389,156.720535 222.740753,150.181427 212.135284,145.803009 
	C187.330399,135.562408 161.593338,135.016708 134.644714,139.054993 
M269.525330,208.949524 
	C265.762451,208.949524 261.999542,208.949524 258.125763,208.949524 
	C260.385590,218.773636 260.384033,218.710617 269.434326,218.488785 
	C274.769562,218.358017 280.110657,218.464905 285.696869,218.464905 
	C285.275238,219.243729 285.179962,219.598007 284.952820,219.812744 
	C281.327057,223.240387 277.678131,226.643478 274.047058,230.065536 
	C267.418182,236.312820 267.419250,236.336670 272.537476,244.714432 
	C281.304718,236.254120 290.184967,228.012253 298.526672,219.257217 
	C299.684296,218.042221 298.565735,214.165543 297.757019,211.772400 
	C297.335907,210.526230 295.315033,209.052338 293.975922,209.011246 
	C286.162750,208.771545 278.337494,208.925842 269.525330,208.949524 
M209.994354,268.876007 
	C207.232193,260.416992 207.232971,260.461487 198.589905,260.613342 
	C193.413605,260.704315 188.234375,260.630035 181.873520,260.630035 
	C186.748611,256.062561 190.737274,252.361572 194.685562,248.618011 
	C200.786224,242.833633 200.845886,241.857941 195.510483,234.644424 
	C186.895020,242.956955 178.363525,251.299667 169.691223,259.493347 
	C166.795364,262.229370 169.332581,264.450928 170.192734,266.608582 
	C170.784760,268.093628 172.647888,270.100891 173.956253,270.110779 
	C185.894608,270.201172 197.835876,269.904266 209.994354,268.876007 
M253.492477,249.015381 
	C250.831741,251.606445 250.355728,254.848404 252.697998,257.431183 
	C254.208862,259.097198 257.348053,260.592773 259.338806,260.174072 
	C261.630127,259.692139 264.440704,257.356781 265.194183,255.189606 
	C265.851227,253.299698 264.605804,249.917358 263.055573,248.276825 
	C260.425323,245.493362 257.017853,246.429764 253.492477,249.015381 
M252.927170,227.320282 
	C254.875870,223.510345 253.659454,220.292709 250.356644,218.286255 
	C246.945694,216.214096 243.511459,217.311707 240.990326,220.290619 
	C238.583420,223.134567 239.095963,226.205643 241.284241,228.950424 
	C243.961807,232.308899 248.087189,231.888138 252.927170,227.320282 
z"/>
<path fill="#E4194B" opacity="1.000000" stroke="none" 
	d="
M403.724548,254.746826 
	C389.786743,262.374390 374.975708,264.975708 359.697845,265.955475 
	C347.415161,266.743164 335.157288,267.918457 322.244629,268.974396 
	C324.525452,297.413361 326.779053,325.513092 329.065826,354.026154 
	C313.937683,355.194702 299.363739,356.320435 284.144379,357.496033 
	C283.515991,350.779480 282.843567,344.233734 282.300903,337.677216 
	C280.266998,313.104156 278.316406,288.524078 276.210632,263.957245 
	C275.975494,261.214111 276.720795,259.782532 279.221893,258.535065 
	C296.059479,250.137192 312.660034,241.242737 329.701050,233.288269 
	C334.275452,231.153015 340.103668,231.655701 345.369263,231.062561 
	C350.989899,230.429443 356.674438,230.231110 362.246826,229.324844 
	C387.237518,225.260574 393.546326,208.812439 390.570953,187.667725 
	C387.861206,168.410858 377.999908,159.123444 358.520172,158.830368 
	C343.765930,158.608398 328.981323,160.405518 314.644348,161.277725 
	C314.092224,162.251740 313.735443,162.589310 313.795319,162.817657 
	C315.918182,170.916611 312.056641,174.869385 304.839783,177.967285 
	C294.454926,182.425140 284.561646,188.026520 274.442810,193.108536 
	C273.459595,193.602341 272.366150,193.876572 270.783997,194.447586 
	C269.005005,172.679199 267.260651,151.334473 265.472656,129.455917 
	C274.414642,128.727127 282.834320,128.033218 291.255310,127.356079 
	C312.346069,125.660156 333.430023,123.870697 354.531097,122.314262 
	C369.843781,121.184784 384.866272,122.562096 398.969421,129.226013 
	C418.247040,138.334930 429.722015,153.765060 434.342865,174.312943 
	C439.536469,197.407593 437.978302,219.627335 422.484467,238.727997 
	C417.463379,244.917938 410.249481,249.329132 403.724548,254.746826 
z"/>
<path fill="#E4194B" opacity="1.000000" stroke="none" 
	d="
M135.065308,138.983368 
	C161.593338,135.016708 187.330399,135.562408 212.135284,145.803009 
	C222.740753,150.181427 231.917389,156.720535 239.955215,165.833267 
	C232.623764,175.860062 225.401001,185.978226 217.878510,195.868423 
	C215.832916,198.557846 213.391891,197.137665 210.994141,195.356171 
	C205.278244,191.109329 199.735336,186.333420 193.396011,183.279221 
	C176.536331,175.156525 158.729660,174.344955 140.758392,179.092636 
	C129.547867,182.054245 122.844292,189.732971 122.113953,199.387405 
	C121.220886,211.192856 125.621841,219.894196 137.171906,224.277573 
	C147.516342,228.203400 158.612442,230.173904 169.413055,232.861923 
	C174.991379,234.250244 180.648209,235.323029 187.247131,236.749725 
	C185.154068,237.999969 183.980621,238.800247 182.724106,239.436417 
	C165.491531,248.161407 148.303543,256.978882 130.939682,265.434967 
	C128.607147,266.570892 125.071693,266.719360 122.605789,265.857971 
	C106.631477,260.277618 92.651535,251.659790 84.428329,236.260193 
	C64.162964,198.309219 81.982712,155.178345 123.070412,142.152023 
	C126.873543,140.946289 130.784058,140.079285 135.065308,138.983368 
z"/>
<path fill="#E4194B" opacity="1.000000" stroke="none" 
	d="
M232.005951,282.251648 
	C235.740311,280.481567 239.474686,278.711487 243.540375,276.784332 
	C247.883865,287.180237 249.255081,297.836975 248.775681,308.682678 
	C247.879318,328.960815 241.532928,346.931549 225.124420,360.079163 
	C212.517059,370.181030 197.689667,374.898804 181.891266,376.739014 
	C155.420822,379.822296 129.681259,377.165863 105.245735,365.892151 
	C91.684227,359.635315 80.432091,350.483856 71.762703,338.206055 
	C69.953201,335.643372 69.784218,333.920349 71.999977,331.354645 
	C79.072281,323.165527 85.801071,314.680237 92.687935,306.330261 
	C96.117065,302.172607 97.910011,302.193634 101.152107,306.451965 
	C118.473442,329.202515 141.418472,339.397156 169.893723,337.386353 
	C193.751038,335.701660 204.143204,322.712067 200.386261,298.470490 
	C208.488983,294.365784 216.759872,290.175842 225.745361,285.950012 
	C228.308594,284.693298 230.157272,283.472504 232.005951,282.251648 
z"/>
<path fill="#E51F4F" opacity="1.000000" stroke="none" 
	d="
M231.660721,282.149506 
	C230.157272,283.472504 228.308594,284.693298 226.091675,285.904968 
	C224.637070,284.985748 223.550720,284.075592 221.581192,282.425568 
	C220.620132,271.801697 219.499939,259.898224 218.478745,247.986252 
	C217.582672,237.533707 217.122772,227.030884 215.818268,216.632034 
	C215.218674,211.852295 216.488068,209.453796 221.036575,208.479813 
	C222.291870,208.211014 223.474945,207.604889 225.362869,206.904297 
	C226.177383,216.415802 226.960159,225.468521 227.726181,234.522690 
	C228.863174,247.961411 230.046356,261.396729 231.062103,274.844696 
	C231.234238,277.123718 230.661194,279.458496 230.454620,281.769470 
	C230.448349,281.839661 230.680923,281.963409 230.819427,282.005707 
	C230.974518,282.053131 231.149292,282.036255 231.660721,282.149506 
z"/>
<path fill="#E51E4F" opacity="1.000000" stroke="none" 
	d="
M270.020813,208.948303 
	C278.337494,208.925842 286.162750,208.771545 293.975922,209.011246 
	C295.315033,209.052338 297.335907,210.526230 297.757019,211.772400 
	C298.565735,214.165543 299.684296,218.042221 298.526672,219.257217 
	C290.184967,228.012253 281.304718,236.254120 272.537476,244.714432 
	C267.419250,236.336670 267.418182,236.312820 274.047058,230.065536 
	C277.678131,226.643478 281.327057,223.240387 284.952820,219.812744 
	C285.179962,219.598007 285.275238,219.243729 285.696869,218.464905 
	C280.110657,218.464905 274.769562,218.358017 269.434326,218.488785 
	C260.384033,218.710617 260.385590,218.773636 258.125763,208.949524 
	C261.999542,208.949524 265.762451,208.949524 270.020813,208.948303 
z"/>
<path fill="#E51E4F" opacity="1.000000" stroke="none" 
	d="
M209.885330,269.298218 
	C197.835876,269.904266 185.894608,270.201172 173.956253,270.110779 
	C172.647888,270.100891 170.784760,268.093628 170.192734,266.608582 
	C169.332581,264.450928 166.795364,262.229370 169.691223,259.493347 
	C178.363525,251.299667 186.895020,242.956955 195.510483,234.644424 
	C200.845886,241.857941 200.786224,242.833633 194.685562,248.618011 
	C190.737274,252.361572 186.748611,256.062561 181.873520,260.630035 
	C188.234375,260.630035 193.413605,260.704315 198.589905,260.613342 
	C207.232971,260.461487 207.232193,260.416992 209.885330,269.298218 
z"/>
<path fill="#E52252" opacity="1.000000" stroke="none" 
	d="
M253.774017,248.776337 
	C257.017853,246.429764 260.425323,245.493362 263.055573,248.276825 
	C264.605804,249.917358 265.851227,253.299698 265.194183,255.189606 
	C264.440704,257.356781 261.630127,259.692139 259.338806,260.174072 
	C257.348053,260.592773 254.208862,259.097198 252.697998,257.431183 
	C250.355728,254.848404 250.831741,251.606445 253.774017,248.776337 
z"/>
<path fill="#E52150" opacity="1.000000" stroke="none" 
	d="
M252.718048,227.640259 
	C248.087189,231.888138 243.961807,232.308899 241.284241,228.950424 
	C239.095963,226.205643 238.583420,223.134567 240.990326,220.290619 
	C243.511459,217.311707 246.945694,216.214096 250.356644,218.286255 
	C253.659454,220.292709 254.875870,223.510345 252.718048,227.640259 
z"/>
</svg>